<svg width="50" height="50" viewBox="0 0 50 50" fill="none" xmlns="http://www.w3.org/2000/svg">
<rect opacity="0.5" width="50" height="50" rx="12" fill="#D8BAFF"/>
<path fill-rule="evenodd" clip-rule="evenodd" d="M25 16.25C22.9289 16.25 21.25 17.9289 21.25 20C21.25 22.0711 22.9289 23.75 25 23.75C27.0711 23.75 28.75 22.0711 28.75 20C28.75 17.9289 27.0711 16.25 25 16.25ZM18.75 20C18.75 16.5482 21.5482 13.75 25 13.75C28.4518 13.75 31.25 16.5482 31.25 20C31.25 23.4518 28.4518 26.25 25 26.25C21.5482 26.25 18.75 23.4518 18.75 20ZM19.3201 30.9081C18.0023 31.4932 17.5 32.2323 17.5 33.125C17.5 33.4046 17.5497 33.5628 17.6216 33.6775C17.6935 33.7922 17.8652 33.9866 18.3277 34.1958C19.3164 34.6431 21.2701 35 25 35C28.7299 35 30.6836 34.6431 31.6723 34.1958C32.1348 33.9866 32.3065 33.7922 32.3784 33.6775C32.4503 33.5628 32.5 33.4046 32.5 33.125C32.5 32.2323 31.9977 31.4932 30.6799 30.9081C29.3268 30.3072 27.3402 30 25 30C22.6598 30 20.6732 30.3072 19.3201 30.9081ZM18.3055 28.6232C20.1193 27.8178 22.5077 27.5 25 27.5C27.4923 27.5 29.8807 27.8178 31.6945 28.6232C33.5435 29.4443 35 30.8927 35 33.125C35 33.7084 34.8934 34.3723 34.4966 35.0053C34.0998 35.6383 33.4902 36.1173 32.7027 36.4736C31.1914 37.1573 28.7701 37.5 25 37.5C21.2299 37.5 18.8086 37.1573 17.2973 36.4736C16.5098 36.1173 15.9002 35.6383 15.5034 35.0053C15.1066 34.3723 15 33.7084 15 33.125C15 30.8927 16.4565 29.4443 18.3055 28.6232Z" fill="#E8E0EB"/>
</svg>
